<?xml version="1.0" encoding="UTF-8"?>
<!DOCTYPE svg PUBLIC "-//W3C//DTD SVG 1.1//EN" "http://www.w3.org/Graphics/SVG/1.1/DTD/svg11.dtd">
<!-- Creator: CorelDRAW (Evaluation Version) -->
<svg xmlns="http://www.w3.org/2000/svg" xml:space="preserve" width="1444.98mm" height="1444.98mm" version="1.1" style="shape-rendering:geometricPrecision; text-rendering:geometricPrecision; image-rendering:optimizeQuality; fill-rule:evenodd; clip-rule:evenodd"
viewBox="0 0 144497.78 144497.78"
 xmlns:xlink="http://www.w3.org/1999/xlink"
 xmlns:xodm="http://www.corel.com/coreldraw/odm/2003">
 <defs>
  <style type="text/css">
   <![CDATA[
    .fil0 {fill:#FEFEFE;fill-rule:nonzero}
   ]]>
  </style>
 </defs>
 <g id="Layer_x0020_1">
  <metadata id="CorelCorpID_0Corel-Layer"/>
  <path class="fil0" d="M51049.61 58117.03l0 805.22c302.4,130.81 514.74,433.21 514.74,784.01l0 16038.34c0,350.8 -212.34,653.17 -514.74,783.98l0 12425.01c0,792.48 308.33,1536.55 868.93,2097.15l1824.49 1824.5c560.64,560.6 1304.72,868.93 2097.23,868.93l7664.95 0c149.5,-555.49 657.4,-965.77 1260.47,-965.77 603.08,0 1111.04,410.28 1260.55,965.77l6375.54 0 0 679.52 -6375.54 0c-149.51,555.52 -657.47,965.76 -1260.55,965.76 -603.07,0 -1110.97,-410.24 -1260.47,-965.76l-7664.95 0c-973.42,0 -1889.09,-378.82 -2577.96,-1067.68l-1824.49 -1824.5c-688.91,-688.87 -1067.72,-1604.54 -1067.72,-2577.92l0 -12425.01c-302.36,-130.81 -514.7,-433.18 -514.7,-783.98l0 -16038.34c0,-350.8 212.34,-653.2 514.7,-784.01l0 -805.22c0,-973.42 378.81,-1889.05 1067.72,-2577.92l2099.7 -2099.73c688.87,-688.84 1604.5,-1067.69 2577.92,-1067.69l16286.34 0 0 679.52 -16286.34 0c-792.48,0 -1536.56,308.33 -2097.16,868.97l-2099.73 2099.7c-560.6,560.59 -868.93,1304.64 -868.93,2097.15z"/>
  <path class="fil0" d="M36001.71 80619.28c-753.43,0 -1365.85,-612.42 -1365.85,-1365.82 0,-753.42 612.42,-1365.85 1365.85,-1365.85 753.39,0 1365.78,612.43 1365.78,1365.85 0,753.4 -612.39,1365.82 -1365.78,1365.82zm26144.46 14842.38l-6978.68 0c-826.45,0 -1602.78,-321.91 -2187.19,-906.32l-2864.17 -2864.17c-584.41,-584.37 -906.28,-1360.73 -906.28,-2187.18l0 -6945.53c0,-1939.18 -1578.19,-3517.37 -3517.37,-3517.37l-7827.19 0c-105.34,-934.33 -901.24,-1663.1 -1863.58,-1663.1 -1034.6,0 -1875.48,840.88 -1875.48,1875.47 0,1033.71 840.88,1875.44 1875.48,1875.44 961.49,0 1757.39,-728.77 1863.58,-1663.1l7827.19 0c1704.72,0 3092.66,1387.9 3092.66,3092.66l0 6945.53c0,939.41 366.11,1822.8 1030.32,2487.89l2864.17 2864.17c665.05,664.21 1548.41,1030.32 2487.86,1030.32l6978.68 0c117.2,0 212.34,-95.14 212.34,-212.37 0,-117.19 -95.14,-212.34 -212.34,-212.34z"/>
  <path class="fil0" d="M9918.39 51852.72c-753.43,0 -1365.85,-612.42 -1365.85,-1365.85 0,-753.39 612.42,-1365.81 1365.85,-1365.81 753.39,0 1365.85,612.42 1365.85,1365.81 0,753.43 -612.46,1365.85 -1365.85,1365.85zm45524.31 -1096.58c-939.41,0 -1822.8,366.08 -2487.01,1030.33l-2758.02 2757.13c-584.38,584.41 -1360.73,906.32 -2187.19,906.32l-17152.72 0c-826.49,0 -1602.85,-321.91 -2187.22,-906.32l-3238.75 -3238.74c-665.06,-664.25 -1548.48,-1030.33 -2487.9,-1030.33l-11161.92 0c-105.34,-934.33 -900.39,-1663.1 -1863.58,-1663.1 -1033.71,0 -1875.48,841.73 -1875.48,1875.44 0,1033.74 841.77,1875.51 1875.48,1875.51 963.19,0 1758.24,-728.81 1863.58,-1663.14l11161.92 0c826.49,0 1602.81,321.91 2187.23,906.32l3238.74 3238.75c665.1,664.21 1548.45,1030.32 2487.9,1030.32l17152.72 0c939.45,0 1822.81,-366.11 2487.9,-1030.32l2757.13 -2757.17c584.38,-584.38 1360.74,-906.29 2187.19,-906.29l16959.05 0 0 -424.71 -16959.05 0z"/>
  <polygon class="fil0" points="72401.79,94423.69 72401.79,93744.17 "/>
  <polygon class="fil0" points="72401.79,51180.85 72401.79,50756.14 "/>
  <polygon class="fil0" points="72401.79,53051.22 72401.79,52371.7 "/>
  <path class="fil0" d="M93448.17 58117.03l0 805.22c-302.4,130.81 -514.73,433.21 -514.73,784.01l0 16038.34c0,350.8 212.33,653.17 514.73,783.98l0 12425.01c0,792.48 -308.32,1536.55 -868.92,2097.15l-1824.53 1824.5c-560.6,560.6 -1304.68,868.93 -2097.2,868.93l-7664.94 0c-149.51,-555.49 -657.4,-965.77 -1260.48,-965.77 -603.07,0 -1111.04,410.28 -1260.54,965.77l-6375.54 0 0 679.52 6375.54 0c149.5,555.52 657.47,965.76 1260.54,965.76 603.08,0 1110.97,-410.24 1260.48,-965.76l7664.94 0c973.42,0 1889.09,-378.82 2577.96,-1067.68l1824.5 -1824.5c688.87,-688.87 1067.71,-1604.54 1067.71,-2577.92l0 -12425.01c302.33,-130.81 514.71,-433.18 514.71,-783.98l0 -16038.34c0,-350.8 -212.38,-653.2 -514.71,-784.01l0 -805.22c0,-973.42 -378.84,-1889.05 -1067.71,-2577.92l-2099.7 -2099.73c-688.91,-688.84 -1604.54,-1067.69 -2577.92,-1067.69l-16286.34 0 0 679.52 16286.34 0c792.48,0 1536.55,308.33 2097.15,868.97l2099.74 2099.7c560.6,560.59 868.92,1304.64 868.92,2097.15z"/>
  <path class="fil0" d="M107130.27 79253.45c0,-753.43 612.43,-1365.82 1365.82,-1365.82 753.43,0 1365.81,612.39 1365.81,1365.82 0,753.42 -612.38,1365.81 -1365.81,1365.81 -753.39,0 -1365.82,-612.39 -1365.82,-1365.81zm-24990.98 16420.57c0,117.19 95.14,212.33 212.33,212.33l6978.69 0c939.41,0 1822.8,-366.07 2487.82,-1030.32l2864.2 -2864.17c664.21,-665.09 1030.29,-1548.44 1030.29,-2487.89l0 -6945.53c0,-1704.72 1387.97,-3092.66 3092.7,-3092.66l7827.19 0c106.18,934.37 902.05,1663.14 1863.58,1663.14 1034.56,0 1875.47,-841.76 1875.47,-1875.47 0,-1034.56 -840.91,-1875.48 -1875.47,-1875.48 -962.34,0 -1758.25,728.77 -1863.58,1663.14l-7827.19 0c-1939.19,0 -3517.37,1578.15 -3517.37,3517.33l0 6945.53c0,826.49 -321.88,1602.81 -906.32,2187.22l-2864.14 2864.17c-584.41,584.37 -1360.73,906.28 -2187.18,906.28l-6978.69 0c-117.19,0 -212.33,95.15 -212.33,212.38z"/>
  <path class="fil0" d="M133213.56 50486.88c0,-753.4 612.45,-1365.82 1365.85,-1365.82 753.39,0 1365.81,612.42 1365.81,1365.82 0,753.42 -612.42,1365.85 -1365.81,1365.85 -753.4,0 -1365.85,-612.43 -1365.85,-1365.85zm-61117.55 269.27l0 424.71 16959.05 0c826.45,0 1602.84,321.91 2187.18,906.29l2757.17 2757.13c665.1,664.25 1548.45,1030.36 2487.9,1030.36l17152.72 0c939.45,0 1822.81,-366.11 2487.9,-1030.36l3238.75 -3238.75c584.41,-584.37 1360.73,-906.28 2187.18,-906.28l11161.96 0c105.34,934.33 900.36,1663.1 1863.59,1663.1 1033.71,0 1875.47,-841.73 1875.47,-1875.47 0,-1033.71 -841.76,-1875.44 -1875.47,-1875.44 -963.23,0 -1758.25,728.77 -1863.59,1663.1l-11161.96 0c-939.37,0 -1822.8,366.08 -2487.89,1030.32l-3238.75 3238.75c-584.38,584.38 -1360.73,906.32 -2187.19,906.32l-17152.72 0c-826.49,0 -1602.85,-321.94 -2187.22,-906.32l-2758.02 -2757.14c-664.21,-664.24 -1547.57,-1030.32 -2487.01,-1030.32l-16959.05 0z"/>
  <polygon class="fil0" points="69160.47,93744.18 69160.47,94423.7 "/>
  <polygon class="fil0" points="69160.47,50756.14 69160.47,51180.85 "/>
  <polygon class="fil0" points="69160.47,52371.7 69160.47,53051.22 "/>
 </g>
</svg>
